<svg xmlns="http://www.w3.org/2000/svg" width="10" height="10" viewBox="0 0 10 10" fill="none">
<path d="M5.41668 2.91667H4.58334V4.58334H2.91668V5.41667H4.58334V7.08334H5.41668V5.41667H7.08334V4.58334H5.41668V2.91667ZM5.00001 0.833336C2.70001 0.833336 0.833344 2.7 0.833344 5C0.833344 7.3 2.70001 9.16667 5.00001 9.16667C7.30001 9.16667 9.16668 7.3 9.16668 5C9.16668 2.7 7.30001 0.833336 5.00001 0.833336ZM5.00001 8.33334C3.16251 8.33334 1.66668 6.8375 1.66668 5C1.66668 3.1625 3.16251 1.66667 5.00001 1.66667C6.83751 1.66667 8.33334 3.1625 8.33334 5C8.33334 6.8375 6.83751 8.33334 5.00001 8.33334Z" fill="#4F4F4F"/>
</svg>