<svg xmlns="http://www.w3.org/2000/svg" x="0px" y="0px" width="25" height="25" viewBox="0 0 172 172" style="fill:#000000;width: 64px;">
                                    <g fill="none" fill-rule="nonzero" stroke="none" stroke-width="1" stroke-linecap="butt" stroke-linejoin="miter" stroke-miterlimit="10" stroke-dasharray="" stroke-dashoffset="0" font-family="none" font-weight="none" font-size="none" text-anchor="none" style="mix-blend-mode: normal">
                                        <path d="M0,172v-172h172v172z" fill="none"></path>
                                        <g>
                                            <path d="M86,79.28125c-11.13199,0 -20.15625,9.02426 -20.15625,20.15625c0,11.13199 9.02426,20.15625 20.15625,20.15625c11.13199,0 20.15625,-9.02426 20.15625,-20.15625c0,-11.13199 -9.02426,-20.15625 -20.15625,-20.15625zM86,17.46875c-7.42133,0 -13.4375,6.01617 -13.4375,13.4375c0,7.42133 6.01617,13.4375 13.4375,13.4375c7.42133,0 13.4375,-6.01617 13.4375,-13.4375c0,-7.42133 -6.01617,-13.4375 -13.4375,-13.4375zM146.46875,120.9375c-7.42133,0 -13.4375,6.01617 -13.4375,13.4375c0,7.42133 6.01617,13.4375 13.4375,13.4375c7.42133,0 13.4375,-6.01617 13.4375,-13.4375c0,-7.42133 -6.01617,-13.4375 -13.4375,-13.4375zM146.46875,51.0625c-7.42133,0 -13.4375,6.01617 -13.4375,13.4375c0,7.42133 6.01617,13.4375 13.4375,13.4375c7.42133,0 13.4375,-6.01617 13.4375,-13.4375c0,-7.42133 -6.01617,-13.4375 -13.4375,-13.4375zM25.53125,51.0625c-7.42133,0 -13.4375,6.01617 -13.4375,13.4375c0,7.42133 6.01617,13.4375 13.4375,13.4375c7.42133,0 13.4375,-6.01617 13.4375,-13.4375c0,-7.42133 -6.01617,-13.4375 -13.4375,-13.4375zM25.53125,120.9375c-7.42133,0 -13.4375,6.01617 -13.4375,13.4375c0,7.42133 6.01617,13.4375 13.4375,13.4375c7.42133,0 13.4375,-6.01617 13.4375,-13.4375c0,-7.42133 -6.01617,-13.4375 -13.4375,-13.4375z" fill="#cccccc"></path>
                                            <path d="M49.45,116.77188l-10.48125,6.31562c-3.225,-3.7625 -8.0625,-6.18125 -13.4375,-6.18125c-9.675,0 -17.46875,7.79375 -17.46875,17.46875c0,9.675 7.79375,17.46875 17.46875,17.46875c9.675,0 17.46875,-7.79375 17.46875,-17.46875c0,-1.34375 -0.13437,-2.6875 -0.5375,-4.03125l11.01875,-6.71875c1.88125,-1.20938 2.55313,-3.62812 1.34375,-5.50937c-1.075,-1.88125 -3.49375,-2.41875 -5.375,-1.34375zM25.53125,143.78125c-5.24063,0 -9.40625,-4.16563 -9.40625,-9.40625c0,-5.24062 4.16562,-9.40625 9.40625,-9.40625c5.24062,0 9.40625,4.16563 9.40625,9.40625c0,5.24062 -4.16563,9.40625 -9.40625,9.40625zM123.0875,83.04375l11.01875,-6.31563c3.225,3.225 7.525,5.10625 12.3625,5.10625c9.675,0 17.46875,-7.79375 17.46875,-17.46875c0,-9.675 -7.79375,-17.46875 -17.46875,-17.46875c-9.675,0 -17.46875,7.79375 -17.46875,17.46875c0,1.88125 0.26875,3.7625 0.94063,5.50937l-10.75,6.04688c-1.88125,1.075 -2.55312,3.49375 -1.47812,5.50938c0.94062,2.01563 3.35937,2.82188 5.375,1.6125zM146.46875,55.09375c5.24062,0 9.40625,4.16562 9.40625,9.40625c0,5.24062 -4.16563,9.40625 -9.40625,9.40625c-5.24062,0 -9.40625,-4.16563 -9.40625,-9.40625c0,-5.24063 4.16563,-9.40625 9.40625,-9.40625zM86,13.4375c-9.675,0 -17.46875,7.79375 -17.46875,17.46875c0,8.19687 5.77813,15.18437 13.4375,16.93125v11.2875c0,2.28438 1.74688,4.03125 4.03125,4.03125c2.28437,0 4.03125,-1.74687 4.03125,-4.03125v-11.2875c7.65937,-1.88125 13.4375,-8.73437 13.4375,-16.93125c0,-9.675 -7.79375,-17.46875 -17.46875,-17.46875zM86,40.3125c-5.24062,0 -9.40625,-4.16562 -9.40625,-9.40625c0,-5.24062 4.16563,-9.40625 9.40625,-9.40625c5.24063,0 9.40625,4.16563 9.40625,9.40625c0,5.24063 -4.16562,9.40625 -9.40625,9.40625zM146.46875,116.90625c-5.375,0 -10.07812,2.41875 -13.30312,6.18125l-10.48125,-6.31562c-1.88125,-1.20938 -4.43438,-0.5375 -5.50938,1.34375c-1.20937,1.88125 -0.5375,4.43437 1.34375,5.50937l11.01875,6.71875c-0.26875,1.34375 -0.5375,2.6875 -0.5375,4.03125c0,9.675 7.79375,17.46875 17.46875,17.46875c9.675,0 17.46875,-7.79375 17.46875,-17.46875c0,-9.675 -7.79375,-17.46875 -17.46875,-17.46875zM146.46875,143.78125c-5.24062,0 -9.40625,-4.16563 -9.40625,-9.40625c0,-5.24062 4.16563,-9.40625 9.40625,-9.40625c5.24062,0 9.40625,4.16563 9.40625,9.40625c0,5.24062 -4.16563,9.40625 -9.40625,9.40625zM25.53125,81.96875c4.97188,0 9.40625,-2.15 12.63125,-5.375l10.88437,6.31562c1.88125,1.075 4.43437,0.40313 5.50937,-1.47812c1.075,-1.88125 0.40313,-4.43438 -1.47812,-5.50938l-10.88437,-6.18125c0.5375,-1.6125 0.80625,-3.35937 0.80625,-5.10625c0,-9.675 -7.79375,-17.46875 -17.46875,-17.46875c-9.675,0 -17.46875,7.65937 -17.46875,17.33438c0,9.675 7.79375,17.46875 17.46875,17.46875zM25.53125,55.09375c5.24062,0 9.40625,4.16562 9.40625,9.40625c0,5.24062 -4.16563,9.40625 -9.40625,9.40625c-5.24062,0 -9.40625,-4.16563 -9.40625,-9.40625c0,-5.24063 4.16562,-9.40625 9.40625,-9.40625z" fill="#cccccc"></path>
                                            <g fill="#444b54">
                                                <path d="M86,123.625c-13.30312,0 -24.1875,-10.88437 -24.1875,-24.1875c0,-13.30313 10.88438,-24.1875 24.1875,-24.1875c13.30313,0 24.1875,10.88437 24.1875,24.1875c0,13.30313 -10.88437,24.1875 -24.1875,24.1875zM86,83.3125c-8.86875,0 -16.125,7.25625 -16.125,16.125c0,8.86875 7.25625,16.125 16.125,16.125c8.86875,0 16.125,-7.25625 16.125,-16.125c0,-8.86875 -7.25625,-16.125 -16.125,-16.125z"></path>
                                            </g>
                                            <g>
                                                <path d="M123.625,158.69688c-7.39062,-13.03438 -21.5,-21.90313 -37.625,-21.90313v0c-16.125,0 -30.23437,8.86875 -37.625,21.90313l0.13437,3.49375h75.11562z" fill="#cccccc"></path>
                                                <path d="M48.375,162.72813c-0.67187,0 -1.34375,-0.13438 -2.01562,-0.5375c-1.88125,-1.075 -2.55313,-3.49375 -1.47812,-5.50937c8.33125,-14.78125 24.1875,-23.91875 41.11875,-23.91875c16.93125,0 32.7875,9.1375 41.11875,23.91875c1.075,1.88125 0.40313,4.43437 -1.47812,5.50937c-1.88125,1.075 -4.43438,0.40312 -5.50937,-1.47812c-6.9875,-12.22813 -20.02188,-19.8875 -34.13125,-19.8875c-14.10937,0 -27.14375,7.65938 -34.13125,19.8875c-0.67187,1.34375 -2.15,2.01563 -3.49375,2.01563z" fill="#444b54"></path>
                                            </g>
                                        </g>
                                    </g>
                                </svg>