<svg xmlns="http://www.w3.org/2000/svg" width="37" height="20" fill="none"><path d="M2.638 10.002l1.868 1.868c7.7 7.7 20.228 7.7 27.929 0l1.86-1.868-1.867-1.868c-7.7-7.7-20.228-7.7-27.929 0l-1.86 1.868zM18.467 19c-5.405 0-10.81-2.06-14.923-6.175L1.198 10.48a.684.684 0 010-.963L3.544 7.17c8.228-8.228 21.618-8.228 29.846 0l2.346 2.346a.684.684 0 010 .963l-2.346 2.345A21.043 21.043 0 0118.467 19z" fill="#000" stroke="#000"/><path d="M18.465 4.832a5.173 5.173 0 00-5.169 5.17 5.173 5.173 0 005.17 5.17 5.173 5.173 0 005.169-5.17 5.173 5.173 0 00-5.17-5.17zm0 11.694c-3.6 0-6.524-2.93-6.524-6.524 0-3.6 2.93-6.524 6.524-6.524s6.524 2.93 6.524 6.524c0 3.6-2.923 6.524-6.524 6.524z" fill="#000" stroke="#000"/></svg>