<svg width="540" height="400" viewBox="0 0 540 400" fill="none" xmlns="http://www.w3.org/2000/svg">
<g clip-path="url(#clip0)">
<path d="M388.443 237.294L392.69 234.673C393.093 234.418 393.491 234.145 393.9 233.889C384.793 232.323 376.493 227.693 370.375 220.767C364.258 213.841 360.688 205.033 360.259 195.802C359.947 189.453 361.147 183.121 363.76 177.327C366.194 171.906 369.787 167.084 374.287 163.202C378.786 159.321 384.082 156.473 389.802 154.861L389.591 171.574L398.772 153.383C398.81 153.377 398.848 153.377 398.886 153.383C404.206 153.135 409.523 153.937 414.533 155.743C419.543 157.55 424.148 160.325 428.086 163.912C432.023 167.498 435.216 171.825 437.481 176.645C439.746 181.465 441.04 186.684 441.288 192.005C441.322 192.778 441.288 193.539 441.288 194.278C444.482 190.635 447.382 186.729 449.303 182.449C453.191 173.78 453.282 163.962 452.958 152.03C452.344 128.382 451.327 104.558 449.996 80.8015C440.411 79.737 431.519 75.2891 424.918 68.257C418.317 61.225 414.441 52.0697 413.984 42.4359C413.927 41.1909 413.944 39.9687 413.984 38.7522C413.984 38.4509 413.984 38.144 414.03 37.8427C414.109 36.666 414.217 35.5006 414.399 34.3523C414.399 34.159 414.467 33.9771 414.502 33.7838C414.668 32.8099 414.867 31.8473 415.098 30.896C415.189 30.5436 415.275 30.1855 415.371 29.833C415.656 28.7984 415.94 27.7809 416.332 26.7747C416.451 26.4393 416.593 26.1152 416.719 25.7855C417.008 25.0465 417.321 24.3189 417.651 23.597C417.827 23.2161 417.998 22.8409 418.185 22.46C418.231 22.3634 418.27 22.2667 418.322 22.1701C422.602 13.7161 429.709 7.02924 438.408 3.27177C447.107 -0.485691 456.847 -1.07614 465.936 1.60307L465.663 23.3525L474.759 5.38904C482.219 9.65946 488.119 16.2034 491.596 24.065C495.074 31.9267 495.946 40.6941 494.087 49.0869H494.132C494.069 49.3768 493.979 49.6554 493.91 49.9396C493.785 50.4739 493.649 51.0026 493.501 51.5313C493.308 52.2078 493.092 52.8729 492.87 53.538C492.699 54.0325 492.535 54.5385 492.347 55.0273C492.074 55.7436 491.779 56.4428 491.449 57.142C491.267 57.5513 491.102 57.9663 490.88 58.3699C490.361 59.4159 489.793 60.4391 489.175 61.4396C488.965 61.7864 488.726 62.1161 488.504 62.4629C488.072 63.1337 487.634 63.7988 487.163 64.4468C486.873 64.8447 486.56 65.2256 486.253 65.6178C485.81 66.1863 485.355 66.7548 484.883 67.2721C484.548 67.6529 484.207 68.0281 483.854 68.409C483.36 68.932 482.848 69.4379 482.319 69.9382C481.973 70.2736 481.62 70.609 481.256 70.9273C480.659 71.456 480.034 71.9619 479.403 72.4565C479.085 72.7066 478.778 72.9681 478.448 73.2068C477.489 73.9193 476.498 74.5882 475.475 75.2135C475.282 75.3272 475.077 75.4239 474.907 75.5375C474.054 76.0435 473.201 76.5153 472.286 76.9587C471.905 77.1463 471.507 77.3112 471.115 77.4874C470.382 77.8171 469.643 78.1354 468.886 78.4253C468.449 78.5902 468 78.7437 467.551 78.8972C466.806 79.153 466.05 79.386 465.277 79.5964C464.822 79.7214 464.373 79.8465 463.912 79.9545C463.082 80.1535 462.235 80.3183 461.383 80.4604C461.326 80.4604 461.275 80.4604 461.218 80.4946C461.779 90.5147 462.277 100.541 462.713 110.572C465.131 105.608 468.537 101.191 472.724 97.591C476.91 93.991 481.787 91.2842 487.057 89.6368C492.327 87.9893 497.878 87.4359 503.369 88.0104C508.86 88.585 514.176 90.2754 518.991 92.978L511.823 112.618L526.569 98.458C534.462 105.693 539.164 115.764 539.643 126.461C539.831 130.214 539.484 133.975 538.614 137.631C536.762 145.542 532.575 152.715 526.596 158.217C520.617 163.72 513.122 167.298 505.085 168.489C497.047 169.68 488.837 168.427 481.519 164.894C474.202 161.361 468.115 155.711 464.049 148.676C464.049 149.694 464.123 150.717 464.151 151.735C464.418 162.262 464.754 175.36 459.507 187.059C455.954 194.989 450.23 201.43 444.573 207.2C440.895 210.957 437.081 214.59 433.17 218.108C429.324 223.272 424.305 227.446 418.526 230.285C412.103 235.234 405.452 239.869 398.573 244.19L394.395 246.884C390.535 249.277 386.579 251.733 382.696 254.274C383.378 254.206 384.055 254.132 384.748 254.104C393.342 253.701 401.842 256.041 409.019 260.785C416.197 265.529 421.68 272.433 424.677 280.497L399.335 301.127L427.19 294.664C427.182 301.521 425.436 308.265 422.115 314.265C418.794 320.265 414.007 325.326 408.2 328.974C402.392 332.622 395.755 334.738 388.909 335.125C382.062 335.512 375.228 334.157 369.047 331.187C369.672 331.972 370.303 332.751 370.929 333.529C372.174 335.081 373.413 336.622 374.624 338.151C391.109 359.031 395.702 378.859 387.534 393.974L377.608 388.608C385.567 373.896 373.629 355.069 365.767 345.143C364.579 343.642 363.362 342.13 362.135 340.595C351.601 327.521 339.663 312.672 339.964 294.476C340.391 267.076 367.046 250.551 388.443 237.294Z" fill="#F2F2F2"/>
<path d="M258.936 400C401.942 400 517.871 394.655 517.871 388.062C517.871 381.469 401.942 376.125 258.936 376.125C115.929 376.125 0 381.469 0 388.062C0 394.655 115.929 400 258.936 400Z" fill="#3F3D56"/>
<path d="M468.125 383.611C469.83 380.479 467.897 376.642 465.692 373.845C463.486 371.048 460.797 368.16 460.854 364.585C460.934 359.468 466.362 356.45 470.706 353.738C473.922 351.724 476.889 349.337 479.545 346.627C480.66 345.584 481.582 344.352 482.268 342.989C483.161 340.988 483.138 338.714 483.081 336.52C482.892 329.22 482.532 321.929 482.001 314.645" stroke="#3F3D56" stroke-width="4" stroke-miterlimit="10"/>
<path d="M490.249 314.258C490.186 312.923 489.788 311.625 489.093 310.483C488.398 309.34 487.427 308.391 486.27 307.721L484.485 311.257L484.536 306.982C483.315 306.616 482.025 306.549 480.772 306.786C479.52 307.023 478.343 307.557 477.34 308.344C476.337 309.131 475.538 310.147 475.01 311.306C474.482 312.466 474.239 313.736 474.304 315.009C474.403 317.12 475.337 319.104 476.9 320.526C477.674 321.231 478.579 321.775 479.564 322.13C480.548 322.484 481.593 322.641 482.638 322.592C483.683 322.543 484.708 322.288 485.655 321.843C486.601 321.397 487.451 320.77 488.155 319.996C488.859 319.222 489.404 318.317 489.759 317.333C490.113 316.348 490.27 315.304 490.221 314.258H490.249Z" fill="#57B793"/>
<path d="M476.021 368.263C475.185 369.885 473.817 371.172 472.146 371.906C470.476 372.64 468.603 372.778 466.843 372.296C465.082 371.814 463.541 370.741 462.477 369.258C461.414 367.775 460.892 365.971 461 364.149C461.108 362.327 461.839 360.597 463.071 359.25C464.302 357.903 465.959 357.02 467.764 356.749C469.569 356.479 471.413 356.837 472.985 357.763C474.558 358.69 475.764 360.129 476.402 361.839L471.422 365.892L476.902 364.619C476.902 365.886 476.6 367.135 476.021 368.263Z" fill="#57B793"/>
<path d="M472.081 352.749C471.034 352.8 469.988 352.643 469.002 352.288C468.016 351.933 467.11 351.386 466.336 350.68C465.561 349.974 464.934 349.122 464.49 348.173C464.046 347.223 463.794 346.196 463.748 345.149C463.684 343.901 463.92 342.655 464.435 341.516C464.913 340.45 465.619 339.501 466.503 338.737C467.387 337.973 468.427 337.412 469.552 337.094L469.512 340.385L471.32 336.804C473.434 336.705 475.501 337.45 477.066 338.876C478.631 340.301 479.566 342.29 479.665 344.404C479.763 346.519 479.018 348.586 477.593 350.151C476.167 351.716 474.179 352.65 472.064 352.749H472.081Z" fill="#57B793"/>
<path d="M491.449 339.839C489.338 339.939 487.274 339.196 485.711 337.774C484.149 336.352 483.215 334.367 483.115 332.256C483.016 330.145 483.759 328.082 485.181 326.519C486.603 324.956 488.588 324.022 490.698 323.922C492.19 323.849 493.673 324.2 494.973 324.934L493.564 328.8L496.463 326.014C498.018 327.436 498.947 329.417 499.044 331.523C499.08 332.26 499.011 332.999 498.839 333.717C498.441 335.403 497.504 336.913 496.17 338.017C494.837 339.122 493.179 339.762 491.449 339.839Z" fill="#57B793"/>
<path opacity="0.1" d="M489.175 316.362C487.333 316.566 485.543 317.141 483.695 317.254C481.848 317.368 479.818 316.925 478.647 315.486C478.016 314.713 477.703 313.736 477.169 312.894C476.666 312.108 475.977 311.458 475.162 311.001C474.681 312.007 474.416 313.104 474.386 314.219C474.356 315.334 474.56 316.443 474.986 317.474C475.411 318.505 476.049 319.435 476.858 320.203C477.666 320.972 478.627 321.562 479.678 321.935C480.729 322.309 481.847 322.457 482.959 322.37C484.071 322.284 485.152 321.964 486.133 321.433C487.114 320.902 487.972 320.17 488.652 319.286C489.331 318.401 489.818 317.384 490.079 316.299C489.772 316.311 489.471 316.333 489.175 316.362Z" fill="black"/>
<path opacity="0.1" d="M491.449 339.839C490.073 339.909 488.702 339.621 487.471 339.002C486.24 338.383 485.191 337.455 484.426 336.31C483.661 335.164 483.207 333.839 483.108 332.465C483.008 331.09 483.268 329.714 483.86 328.47C484.493 328.898 485.038 329.444 485.463 330.079C486.031 330.937 486.372 331.926 487.043 332.717C488.282 334.177 490.409 334.655 492.336 334.564C494.263 334.473 496.116 333.933 498.02 333.757C498.282 333.757 498.555 333.711 498.822 333.706C498.427 335.391 497.494 336.901 496.163 338.008C494.833 339.115 493.178 339.758 491.449 339.839Z" fill="black"/>
<path opacity="0.1" d="M472.081 352.749C471.034 352.8 469.988 352.643 469.002 352.288C468.016 351.933 467.11 351.386 466.336 350.68C465.561 349.974 464.934 349.122 464.49 348.173C464.046 347.223 463.794 346.196 463.748 345.149C463.684 343.901 463.92 342.655 464.435 341.516C465.097 341.949 465.675 342.498 466.141 343.136C466.76 344.012 467.147 345.018 467.846 345.825C469.193 347.326 471.456 347.855 473.497 347.804C475.538 347.752 477.374 347.275 479.341 347.127C478.855 348.697 477.898 350.079 476.599 351.085C475.3 352.091 473.722 352.672 472.081 352.749Z" fill="black"/>
<path opacity="0.1" d="M476.021 368.263C475.591 369.218 474.978 370.079 474.216 370.797C473.454 371.515 472.558 372.077 471.579 372.448C470.6 372.82 469.558 372.996 468.511 372.965C467.464 372.934 466.434 372.697 465.479 372.267C464.523 371.838 463.662 371.225 462.944 370.463C462.226 369.701 461.665 368.805 461.293 367.826C460.921 366.847 460.746 365.804 460.777 364.758C460.808 363.711 461.044 362.68 461.474 361.725C462.129 362.161 462.718 362.687 463.225 363.289C463.981 364.215 464.481 365.261 465.362 366.131C466.994 367.728 469.626 368.405 471.968 368.45C473.321 368.468 474.675 368.405 476.021 368.263Z" fill="black"/>
<path d="M456.096 380.001C456.096 380.001 462.389 379.808 464.288 378.455C466.186 377.102 473.951 375.488 474.446 377.659C474.941 379.831 483.911 388.46 476.799 388.494C469.688 388.528 460.28 387.357 458.387 386.22C456.494 385.084 456.096 380.001 456.096 380.001Z" fill="#656380"/>
<path opacity="0.2" d="M476.925 387.738C469.819 387.795 460.405 386.601 458.512 385.464C457.074 384.589 456.494 381.434 456.306 379.979H456.096C456.096 379.979 456.494 385.055 458.37 386.232C460.246 387.408 469.671 388.551 476.782 388.506C478.835 388.506 479.545 387.755 479.505 386.675C479.238 387.318 478.454 387.727 476.925 387.738Z" fill="black"/>
<path d="M110.515 366.074C106.388 358.434 111.084 349.077 116.45 342.267C121.816 335.457 128.388 328.373 128.246 319.693C128.041 307.221 114.807 299.859 104.234 293.248C96.3877 288.342 89.15 282.524 82.6718 275.916C80.0739 273.261 77.5556 270.43 76.0435 267.042C73.8606 262.164 73.9174 256.622 74.0596 251.278C74.5143 233.466 75.3936 215.689 76.6972 197.945" stroke="#3F3D56" stroke-width="4" stroke-miterlimit="10"/>
<path d="M56.5906 196.973C56.7463 193.719 57.717 190.556 59.4135 187.775C61.11 184.994 63.4779 182.683 66.3 181.056L70.6544 189.668L70.5237 179.243C74.4796 178.077 78.7036 178.199 82.5858 179.59C86.4681 180.982 89.8076 183.571 92.1222 186.984C94.4368 190.398 95.6068 194.458 95.4631 198.58C95.3195 202.701 93.8696 206.671 91.323 209.914C88.7763 213.158 85.2646 215.509 81.2949 216.627C77.3252 217.745 73.103 217.572 69.2378 216.134C65.3727 214.695 62.0647 212.066 59.7914 208.625C57.5181 205.184 56.3973 201.11 56.5906 196.99V196.973Z" fill="#57B793"/>
<path d="M91.2783 328.607C93.2339 332.418 96.3934 335.476 100.266 337.307C104.139 339.138 108.508 339.639 112.694 338.731C116.88 337.824 120.65 335.559 123.417 332.289C126.184 329.019 127.793 324.927 127.995 320.648C128.131 317.958 127.699 315.27 126.728 312.758C125.308 309.073 122.8 305.908 119.537 303.683C116.275 301.459 112.413 300.279 108.464 300.302C104.516 300.325 100.667 301.549 97.4311 303.811C94.1948 306.074 91.7236 309.267 90.3461 312.968L102.494 322.848L89.1295 319.739C89.124 322.824 89.861 325.866 91.2783 328.607Z" fill="#57B793"/>
<path d="M100.88 290.849C105.649 291.067 110.332 289.524 114.037 286.513C117.742 283.502 120.21 279.234 120.972 274.521C121.734 269.808 120.736 264.979 118.168 260.954C115.601 256.93 111.642 253.989 107.048 252.694L107.15 260.703L102.773 251.989H102.722C97.5676 251.748 92.5292 253.565 88.7148 257.04C84.9003 260.514 82.6223 265.361 82.3819 270.515C82.1414 275.669 83.9582 280.707 87.4325 284.522C90.9068 288.336 95.7542 290.614 100.908 290.855L100.88 290.849Z" fill="#57B793"/>
<path d="M53.663 259.43C56.6743 259.577 59.6785 259.022 62.4384 257.808C65.1983 256.595 67.6384 254.757 69.5662 252.439C71.4939 250.121 72.8565 247.386 73.5464 244.452C74.2362 241.517 74.2345 238.462 73.5414 235.528C72.8482 232.594 71.4825 229.861 69.5522 227.545C67.6218 225.229 65.1796 223.394 62.4184 222.184C59.6571 220.973 56.6523 220.421 53.6412 220.572C50.6301 220.722 47.6951 221.57 45.0679 223.048L48.4786 232.468L41.4354 225.663C39.5525 227.377 38.0261 229.445 36.9433 231.749C35.8606 234.053 35.2428 236.547 35.1254 239.09C35.0351 240.89 35.2017 242.693 35.62 244.445C36.5869 248.566 38.8719 252.259 42.1283 254.964C45.3847 257.668 49.4345 259.236 53.663 259.43Z" fill="#57B793"/>
<path opacity="0.1" d="M59.2056 202.157C63.6964 202.652 68.0622 204.045 72.5645 204.323C77.0667 204.602 82.0181 203.527 84.8661 200.026C86.4009 198.138 87.1683 195.751 88.4644 193.693C89.6925 191.775 91.3759 190.192 93.3646 189.083C94.603 191.548 95.3028 194.248 95.4178 197.004C95.5328 199.76 95.0603 202.51 94.0316 205.069C93.0029 207.629 91.4416 209.94 89.4512 211.85C87.4608 213.76 85.087 215.225 82.4872 216.148C79.8874 217.07 77.1211 217.429 74.372 217.201C71.6229 216.973 68.9537 216.162 66.5417 214.824C64.1297 213.485 62.03 211.649 60.382 209.436C58.7339 207.224 57.5753 204.687 56.9829 201.992C57.7389 202.027 58.4779 202.078 59.2056 202.157Z" fill="black"/>
<path opacity="0.1" d="M53.663 259.43C57.0149 259.585 60.3498 258.87 63.3441 257.356C66.3383 255.841 68.8903 253.579 70.7522 250.787C72.6141 247.996 73.7228 244.77 73.9706 241.424C74.2184 238.078 73.597 234.724 72.1666 231.689C70.6222 232.728 69.294 234.056 68.2555 235.6C66.8685 237.692 66.0328 240.108 64.4013 242.029C61.3714 245.588 56.1984 246.753 51.5029 246.543C46.8074 246.333 42.2767 244.991 37.6039 244.565C36.9559 244.508 36.2964 244.462 35.6427 244.445C36.6085 248.563 38.8902 252.253 42.142 254.957C45.3938 257.661 49.4385 259.232 53.663 259.43Z" fill="black"/>
<path opacity="0.1" d="M100.88 290.849C104.199 291.005 107.503 290.308 110.476 288.824C113.449 287.34 115.992 285.119 117.863 282.373C119.734 279.627 120.87 276.448 121.163 273.138C121.456 269.828 120.896 266.498 119.537 263.466C117.935 264.53 116.542 265.879 115.427 267.445C113.915 269.577 112.971 272.033 111.203 274C107.923 277.655 102.409 278.945 97.4348 278.826C92.6199 278.724 87.9812 277.541 83.1948 277.172C84.3798 280.993 86.7133 284.356 89.8777 286.803C93.0421 289.25 96.8837 290.663 100.88 290.849Z" fill="black"/>
<path opacity="0.1" d="M91.2783 328.607C93.2339 332.418 96.3934 335.476 100.266 337.307C104.139 339.138 108.508 339.639 112.694 338.731C116.88 337.824 120.65 335.559 123.417 332.289C126.184 329.019 127.793 324.927 127.995 320.648C128.131 317.958 127.699 315.27 126.728 312.758C125.127 313.809 123.691 315.09 122.464 316.561C120.617 318.835 119.395 321.37 117.257 323.473C113.278 327.373 106.86 328.987 101.147 329.158C97.8493 329.169 94.554 328.985 91.2783 328.607Z" fill="black"/>
<path d="M245.133 377.432L170.096 392.78L168.391 392.61L102.449 385.959V302.395L183.171 288.751L241.722 295.573L241.739 295.943L241.745 296.124L245.133 377.432Z" fill="#6C63FF"/>
<path opacity="0.1" d="M245.133 377.432L170.096 392.78L168.391 392.61V306.942L241.739 295.943L245.133 377.432Z" fill="black"/>
<path opacity="0.05" d="M241.745 296.124L241.722 296.142L168.391 306.942L102.449 302.395L183.171 288.751L241.722 295.573L241.74 295.943L241.745 296.124Z" fill="black"/>
<path d="M327.561 380.843L252.523 396.191L250.818 396.021L184.876 389.37V305.805L265.598 292.162L324.15 298.984L324.167 299.353L324.173 299.535L327.561 380.843Z" fill="#3F3D56"/>
<path opacity="0.1" d="M327.561 380.843L252.523 396.191L250.818 396.021V310.353L324.167 299.353L327.561 380.843Z" fill="black"/>
<path opacity="0.05" d="M324.173 299.535L324.15 299.552L250.818 310.353L184.876 305.805L265.598 292.162L324.15 298.984L324.167 299.353L324.173 299.535Z" fill="black"/>
<path d="M275.83 298.984L200.793 314.332L199.088 314.162L133.146 307.511V223.947L213.868 210.303L272.419 217.125L272.437 217.494L272.442 217.676L275.83 298.984Z" fill="#3F3D56"/>
<path opacity="0.1" d="M275.83 298.984L200.793 314.332L199.088 314.162V228.494L272.437 217.494L275.83 298.984Z" fill="black"/>
<path opacity="0.05" d="M272.442 217.676L272.42 217.693L199.088 228.494L133.146 223.947L213.868 210.303L272.42 217.125L272.437 217.494L272.442 217.676Z" fill="black"/>
<path d="M318.465 302.486L279.304 310.501L278.411 310.41L243.996 306.937V263.324L286.125 256.201L316.686 259.766L316.697 259.959V260.05L318.465 302.486Z" fill="#3F3D56"/>
<path opacity="0.1" d="M318.465 302.486L279.304 310.501L278.411 310.41V265.7L316.697 259.959L318.465 302.486Z" fill="black"/>
<path opacity="0.05" d="M316.697 260.05L316.686 260.061L278.411 265.7L243.996 263.324L286.125 256.201L316.686 259.766L316.697 259.959V260.05Z" fill="black"/>
<path d="M213.299 217.784L174.138 225.794L173.245 225.709L138.83 222.235V178.623L180.959 171.5L211.52 175.064L211.531 175.258V175.349L213.299 217.784Z" fill="#3F3D56"/>
<path opacity="0.1" d="M213.299 217.784L174.138 225.794L173.245 225.709V180.999L211.531 175.258L213.299 217.784Z" fill="black"/>
<path opacity="0.05" d="M211.531 175.349L211.52 175.36L173.245 180.999L138.83 178.623L180.959 171.5L211.52 175.064L211.531 175.258V175.349Z" fill="black"/>
<path d="M282.083 216.079L242.922 224.089L242.029 224.003L207.615 220.53V176.918L249.743 169.795L280.304 173.359L280.316 173.552V173.643L282.083 216.079Z" fill="#6C63FF"/>
<path opacity="0.1" d="M282.083 216.079L242.922 224.089L242.029 224.003V179.294L280.316 173.552L282.083 216.079Z" fill="black"/>
<path opacity="0.05" d="M280.315 173.643L280.304 173.655L242.029 179.294L207.615 176.917L249.743 169.795L280.304 173.359L280.315 173.552V173.643Z" fill="black"/>
<path d="M302.548 172.307L263.387 180.317L262.494 180.232L228.079 176.758V133.146L270.208 126.023L300.769 129.587L300.78 129.78V129.871L302.548 172.307Z" fill="#3F3D56"/>
<path opacity="0.1" d="M302.548 172.307L263.387 180.317L262.494 180.232V135.522L300.78 129.78L302.548 172.307Z" fill="black"/>
<path opacity="0.05" d="M300.78 129.871L300.769 129.883L262.494 135.522L228.079 133.146L270.208 126.023L300.769 129.587L300.78 129.78V129.871Z" fill="black"/>
<path d="M329.22 83.1493C328.805 86.8443 325.986 89.8231 324.94 93.3817C323.371 98.7536 326.077 104.524 329.806 108.73C332.811 112.073 336.45 114.786 340.511 116.712C344.573 118.638 348.976 119.739 353.465 119.952C354.784 120.065 356.113 119.92 357.377 119.525C358.502 119.067 359.515 118.373 360.35 117.49C363.146 114.676 364.653 110.782 365.25 106.854C365.847 102.926 365.619 98.9299 365.386 94.9677C365.386 94.1477 365.236 93.3347 364.943 92.5687C364.562 91.8403 364.038 91.1964 363.402 90.6758C361.386 88.8229 359.164 87.2074 356.78 85.8609C355.756 85.2924 354.659 84.7239 354.006 83.7405C353.557 82.9573 353.265 82.0942 353.147 81.1995L352.414 77.4703C352.284 76.3951 351.917 75.3621 351.339 74.4461C350.049 72.7066 347.576 72.4678 345.41 72.3826L337.452 72.0699C334.979 71.9733 331.727 71.2627 329.311 71.7516C327.038 72.2007 327.805 74.2812 328.214 76.1685C328.806 78.4512 329.144 80.7924 329.22 83.1493Z" fill="#FFC0C6"/>
<path opacity="0.1" d="M329.22 83.1493C328.805 86.8443 325.986 89.8231 324.94 93.3817C323.371 98.7536 326.077 104.524 329.806 108.73C332.811 112.073 336.45 114.786 340.511 116.712C344.573 118.638 348.976 119.739 353.465 119.952C354.784 120.065 356.113 119.92 357.377 119.525C358.502 119.067 359.515 118.373 360.35 117.49C363.146 114.676 364.653 110.782 365.25 106.854C365.847 102.926 365.619 98.9299 365.386 94.9677C365.386 94.1477 365.236 93.3347 364.943 92.5687C364.562 91.8403 364.038 91.1964 363.402 90.6758C361.386 88.8229 359.164 87.2074 356.78 85.8609C355.756 85.2924 354.659 84.7239 354.006 83.7405C353.557 82.9573 353.265 82.0942 353.147 81.1995L352.414 77.4703C352.284 76.3951 351.917 75.3621 351.339 74.4461C350.049 72.7066 347.576 72.4678 345.41 72.3826L337.452 72.0699C334.979 71.9733 331.727 71.2627 329.311 71.7516C327.038 72.2007 327.805 74.2812 328.214 76.1685C328.806 78.4512 329.144 80.7924 329.22 83.1493Z" fill="black"/>
<path d="M379.763 249.573L376.386 286.591C375.505 296.301 374.607 306.05 372.879 315.634C372.31 318.937 371.582 322.223 370.752 325.48C368.444 334.524 365.096 343.364 364.016 352.636C363.982 352.903 363.954 353.204 363.925 353.448C363.704 355.495 363.51 357.564 362.788 359.474C362.22 360.89 361.418 362.18 360.833 363.578C359.696 366.375 359.514 369.468 359.372 372.498C355.274 370.184 350.787 368.643 346.132 367.95C343.858 367.615 341.386 367.382 339.879 365.676C338.174 363.823 338.373 360.986 338.657 358.496C339.551 350.765 340.442 343.038 341.329 335.314C341.624 331.991 342.195 328.698 343.034 325.469C343.341 324.394 343.711 323.337 344.086 322.28C344.603 320.824 345.126 319.369 345.518 317.874C346.062 315.472 346.438 313.035 346.644 310.581C347.559 302.804 348.662 295.044 349.628 287.274L349.68 286.864C351.129 275.086 352.232 263.25 351.914 251.386C351.868 249.63 351.794 247.873 351.68 246.111C351.521 243.559 351.288 242.206 353.386 240.608C355.722 238.846 358.798 237.612 361.469 236.458C362.908 235.833 378.745 230.205 379.092 231.445C379.827 234.077 380.209 236.795 380.229 239.528C380.261 242.882 380.105 246.236 379.763 249.573Z" fill="#605D82"/>
<path opacity="0.1" d="M372.879 315.634C372.31 318.937 371.582 322.223 370.752 325.48C368.444 334.524 365.096 343.364 364.016 352.636C363.982 352.903 363.954 353.204 363.925 353.448C356.865 343.364 350.919 332.518 344.029 322.325C344.546 320.87 345.069 319.414 345.461 317.919C346.027 315.504 346.422 313.051 346.644 310.581C347.559 302.804 348.662 295.044 349.628 287.274L349.68 286.864C350.078 288.513 350.65 290.116 351.385 291.645C356.012 301.047 367.006 305.8 372.384 314.799C372.562 315.079 372.727 315.358 372.879 315.634Z" fill="black"/>
<path d="M315.589 232.968C315.822 240.506 317.027 247.981 318.232 255.428L320.716 270.777C322.075 279.19 323.496 287.768 327.475 295.3C330.454 300.939 334.74 305.749 338.623 310.802C348.162 323.229 355.33 337.31 364.374 350.1C367.006 353.818 370.764 357.843 375.249 357.064C378.194 356.558 380.331 354.102 382.639 352.215C385.368 349.987 388.653 348.355 390.802 345.558C392.951 342.761 393.372 338.123 390.461 336.133C389.466 335.457 388.255 335.201 387.13 334.769C382.622 333.063 379.7 328.652 377.847 324.195C375.994 319.738 374.862 314.958 372.39 310.814C367.012 301.815 356.012 297.062 351.385 287.654C348.793 282.39 348.543 276.285 348.349 270.447L347.843 255.491C347.787 253.853 347.747 252.154 348.412 250.659C350.18 246.679 355.523 246.304 359.855 245.798C364.767 245.225 369.526 243.724 373.879 241.376C376.375 240.028 378.808 238.312 380.132 235.81C381.349 233.537 381.514 230.859 381.656 228.278L383.156 201.168C383.287 198.837 383.401 196.422 382.588 194.239C380.524 188.747 373.589 186.951 367.728 187.212C356.825 187.701 346.763 192.391 336.463 195.563C333.91 196.348 331.347 197.053 328.715 197.581C326.441 198.042 323.598 197.854 321.415 198.593C317.504 199.912 317.601 208.473 317.05 212.02C315.912 218.942 315.423 225.955 315.589 232.968Z" fill="#605D82"/>
<path d="M373.771 358.212C374.732 359.184 375.044 360.605 375.295 361.947C376.684 369.392 377.407 376.947 377.455 384.521C377.392 385.227 377.532 385.937 377.858 386.567C378.131 386.941 378.498 387.235 378.921 387.42C381.701 388.744 384.924 386.897 387.244 384.867C391.536 381.11 395.168 376.062 395.412 370.36C395.475 368.894 395.31 367.41 395.566 365.96C395.941 363.812 397.197 361.941 398.3 360.065C400.187 356.868 401.712 353.47 402.848 349.935C403.269 348.605 403.553 346.934 402.507 346.007C402.141 345.716 401.722 345.498 401.273 345.365L388.71 340.703C387.619 340.3 384.913 347.252 384.487 348.014C383.435 349.873 382.389 350.924 380.28 351.356C378.171 351.789 375.567 351.163 373.555 352.238C370.144 354.051 371.844 356.274 373.771 358.212Z" fill="#535070"/>
<path d="M354.398 362.504C354.165 362.04 353.84 361.628 353.443 361.293C352.862 360.924 352.201 360.699 351.516 360.64C349.128 360.23 346.297 359.963 344.643 361.742C343.097 363.408 343.364 366.12 342.073 367.995C341.664 368.564 341.107 369.076 340.755 369.701C340.317 370.658 340.121 371.708 340.186 372.759C340.118 375.653 340.05 378.558 340.254 381.445C340.419 383.867 340.823 386.408 342.341 388.307C344.774 391.354 349.162 391.791 353.05 391.985L356.205 392.15C357.073 392.251 357.952 392.17 358.786 391.911C359.303 391.673 359.767 391.334 360.15 390.913C360.533 390.492 360.827 389.998 361.015 389.461C362.658 385.379 360.06 380.985 358.457 376.892C356.609 372.179 356.939 366.955 354.398 362.504Z" fill="#535070"/>
<path d="M328.311 62.3151C328.271 61.9013 328.331 61.4839 328.487 61.0986C328.948 60.2857 330.153 60.5301 331.062 60.7348C334.718 61.6557 338.572 60.82 342.341 61.036C346.11 61.2521 350.35 63.1337 351.106 66.8287C353.841 64.8936 356.197 62.4736 358.059 59.6888C359.105 58.1255 360.014 56.3348 359.872 54.4589C359.667 51.753 357.399 49.7293 355.324 48.0125L349.071 42.8963C348.247 42.1408 347.297 41.5365 346.263 41.1114C344.819 40.6168 343.239 40.8556 341.715 40.8556C337.168 40.8556 332.29 38.7807 328.237 40.8556C326.532 41.7253 325.264 43.2204 324.036 44.6756L318.448 51.2926C318.025 51.7144 317.716 52.2366 317.55 52.8104C317.391 53.6176 317.806 54.4134 317.954 55.2263C318.215 56.7043 317.578 58.2847 318.067 59.7058C318.88 62.0593 321.745 62.3947 323.496 63.7476C324.144 64.2479 325.167 65.9589 325.946 65.9362C327.316 65.9078 328.271 63.4065 328.311 62.3151Z" fill="#3F3D56"/>
<path d="M337.793 81.8304C347.682 81.8304 355.7 73.8134 355.7 63.9238C355.7 54.0343 347.682 46.0172 337.793 46.0172C327.903 46.0172 319.886 54.0343 319.886 63.9238C319.886 73.8134 327.903 81.8304 337.793 81.8304Z" fill="#FFC0C6"/>
<path d="M341.988 103.108C341.382 101.373 340.239 99.8745 338.726 98.8303C337.213 97.7861 335.407 97.2496 333.569 97.2984C333.042 97.399 332.497 97.3293 332.012 97.0994C331.737 96.8895 331.516 96.6166 331.369 96.3036C330.284 94.3438 329.409 92.2744 328.76 90.13C328.476 89.1807 328.084 88.0608 327.123 87.8164C326.35 87.6174 325.56 88.1177 325.042 88.7259C324.584 89.3786 324.086 90.0032 323.553 90.5962C321.279 92.6085 317.3 90.7724 314.918 92.6199C314.526 92.9212 314.202 93.3078 313.781 93.5863C313.372 93.8357 312.93 94.027 312.468 94.1548C307.844 95.659 303.312 97.4299 298.893 99.4585C300.485 109.031 302.11 118.786 305.84 127.74C307.613 132.003 309.62 136.181 311.041 140.576C314.19 150.313 314.327 160.733 314.366 170.971C314.366 177.975 314.366 185.126 312.093 191.754C311.581 193.255 310.956 194.745 310.814 196.302C310.671 197.86 311.138 199.622 312.417 200.554C313.157 201.043 314.006 201.341 314.889 201.424C318.818 201.992 322.774 200.958 326.64 200.06C337.003 197.661 347.576 196.285 358.121 194.943L375.8 192.67C377.069 192.581 378.31 192.259 379.461 191.72C382.696 189.952 383.003 185.086 380.99 181.994C380.03 180.51 378.671 179.294 377.858 177.725C377.045 176.156 376.983 173.95 378.376 172.864C381.218 170.647 380.365 166.537 380.502 162.945C380.881 152.894 380.829 142.851 380.348 132.816C380.203 130.735 380.169 128.648 380.246 126.563C380.445 123.027 381.32 119.565 382.196 116.126L387.568 94.979C386.164 92.762 383.475 91.3522 380.934 90.7156C378.393 90.0789 375.738 89.8913 373.231 89.1125C368.115 87.5208 363.522 83.4847 358.161 83.8599C357.754 83.8671 357.355 83.9642 356.99 84.1441C355.785 84.832 355.972 86.5715 355.899 87.9585C355.728 91.0339 353.465 93.5977 350.976 95.3997C348.486 97.2017 345.632 98.5092 343.341 100.561C342.943 100.861 342.616 101.245 342.382 101.685C342.149 102.125 342.014 102.611 341.988 103.108Z" fill="#3F3D56"/>
<path d="M271.038 123.169C269.852 123.94 268.591 124.59 267.275 125.108C266.024 125.602 264.688 125.994 263.665 126.859C263.159 127.298 262.733 127.823 262.409 128.41C261.803 129.485 261.497 130.703 261.522 131.937C261.547 133.17 261.903 134.375 262.552 135.424C263.201 136.473 264.12 137.329 265.213 137.902C266.306 138.475 267.532 138.745 268.764 138.683C270.407 138.597 271.959 137.932 273.466 137.278L286.097 131.781C288.234 130.855 290.542 129.775 291.554 127.671C291.67 127.475 291.714 127.244 291.679 127.018C291.581 126.77 291.395 126.567 291.156 126.449C288.31 124.597 285.82 122.248 283.806 119.514C283.289 118.809 282.669 117.149 281.919 116.723C279.247 115.239 273.181 121.782 271.038 123.169Z" fill="#FFC0C6"/>
<path d="M406.06 118.707L410.716 124.028C411.716 125.165 412.716 126.301 413.626 127.529C415.864 130.612 417.659 133.993 418.958 137.574C419.97 140.229 420.811 143.06 420.459 145.879C420.223 147.325 419.832 148.741 419.294 150.103C418.441 152.722 417.382 155.269 416.127 157.72C415.08 159.581 413.896 161.361 412.586 163.047C408.98 167.825 405.034 172.337 400.779 176.548C399.187 178.123 398.505 180.675 397.828 182.801C396.549 186.729 393.508 189.793 390.569 192.692C389.624 193.692 388.578 194.591 387.448 195.376C385.756 196.467 383.777 197.029 381.764 196.99C380.885 196.995 380.015 196.815 379.211 196.461C377.199 195.506 376.176 193.181 375.965 190.964C375.78 188.95 376.116 186.921 376.943 185.075C379.615 179.157 386.476 176.593 391.325 172.273C394.167 169.743 396.345 166.56 398.494 163.416C399.949 161.452 401.165 159.32 402.115 157.067C403.195 154.173 402.774 150.751 403.723 147.818C404.121 146.573 404.86 145.453 405.264 144.219C405.668 142.986 405.804 141.525 405.048 140.462C404.481 139.782 403.757 139.252 402.939 138.916C399.841 137.347 396.373 135.323 395.782 131.895C395.545 129.997 396.041 128.08 397.169 126.535C398.291 125.009 399.603 123.634 401.074 122.442C402.422 121.225 404.701 119.878 406.06 118.707Z" fill="#FFC0C6"/>
<path d="M268.048 130.593C267.229 128.933 266.201 127.239 264.541 126.415C263.733 126.067 262.862 125.887 261.983 125.887C261.103 125.887 260.232 126.067 259.424 126.415C257.816 127.111 256.309 128.021 254.945 129.121L250.932 132.083C250.022 132.68 249.217 133.423 248.55 134.283C247.913 135.326 247.492 136.485 247.31 137.693C246.742 140.462 246.282 143.31 246.679 146.112C247.316 150.66 250.045 154.594 253.046 158.05C254.922 160.199 257.242 162.37 260.095 162.467C261.329 162.507 262.699 162.018 263.21 160.898C263.389 160.453 263.483 159.979 263.489 159.5C263.796 154.452 261.988 149.523 259.885 144.924C259.316 143.674 258.702 142.378 258.748 141.008C258.731 140.775 258.79 140.543 258.918 140.348C259.099 140.159 259.341 140.04 259.601 140.013C262.483 139.444 267.451 141.684 269.469 138.484C270.777 136.369 268.98 132.475 268.048 130.593Z" fill="#FFC0C6"/>
<path d="M327.367 56.6816C327.332 56.2674 327.394 55.8507 327.549 55.4651C328.01 54.6465 329.215 54.8966 330.124 55.1012C333.78 56.0222 337.634 55.1865 341.403 55.4025C345.172 55.6185 349.407 57.5002 350.168 61.1952C352.9 59.257 355.256 56.8375 357.121 54.0553C358.167 52.4863 359.076 50.6956 358.934 48.8197C358.729 46.1138 356.456 44.0901 354.386 42.379L348.133 37.2628C347.312 36.5073 346.363 35.903 345.331 35.4778C343.881 34.9833 342.307 35.222 340.783 35.222C336.235 35.222 331.358 33.1471 327.305 35.222C325.599 36.0918 324.332 37.5869 323.104 39.0421L317.51 45.659C317.09 46.0818 316.783 46.6038 316.618 47.1768C316.458 47.9841 316.873 48.7799 317.021 49.5928C317.283 51.0708 316.646 52.6512 317.135 54.0666C317.948 56.4258 320.813 56.7612 322.564 58.1141C323.212 58.6144 324.235 60.3254 325.014 60.3027C326.361 60.2743 327.316 57.773 327.367 56.6816Z" fill="#3F3D56"/>
<path d="M289.337 105.751C288.615 106.22 287.981 106.811 287.461 107.497C286.807 108.491 286.671 109.77 286.108 110.794C284.903 113.033 282.078 113.835 280.321 115.671C280.036 115.922 279.838 116.256 279.753 116.626C279.742 117.126 279.909 117.614 280.225 118.002L288.717 131.349C291.56 131.6 294.254 129.826 297.085 130.065C298.137 130.15 299.223 130.514 300.234 130.201C300.958 129.879 301.636 129.464 302.252 128.968C303.958 127.899 306.186 127.774 307.602 126.37C309.017 124.966 309.137 122.902 309.12 120.986C309.145 119.324 308.975 117.664 308.614 116.041C307.363 110.924 303.446 106.979 300.991 102.443C299.791 100.232 299.143 98.9412 296.613 100.459C294.084 101.977 291.73 104.001 289.337 105.751Z" fill="#3F3D56"/>
<path d="M392.462 99.0038C394.058 100.04 395.498 101.3 396.737 102.744C398.027 104.41 398.761 106.456 400.006 108.162C401.251 109.867 402.848 111.095 404.212 112.618C406.287 114.926 407.691 117.735 409.067 120.526C405.699 124.908 402.029 129.048 398.084 132.918C397.644 133.436 397.064 133.815 396.413 134.01C395.972 134.057 395.526 133.994 395.115 133.827C394.704 133.659 394.341 133.392 394.06 133.049C393.446 132.412 393.014 131.617 392.428 130.951C391.049 129.529 389.21 128.641 387.238 128.445C385.282 128.254 383.315 128.226 381.354 128.359C380.924 128.41 380.488 128.337 380.098 128.149C379.808 127.95 379.573 127.68 379.416 127.364C377.142 123.453 377.853 118.542 378.666 114.074L380.524 103.841C380.796 101.888 381.317 99.9772 382.076 98.1568C382.781 96.6503 384.35 94.0922 386.294 94.547C388.238 95.0018 390.819 97.8214 392.462 99.0038Z" fill="#3F3D56"/>
<path d="M230.353 174.013L191.192 182.022L190.299 181.937L155.884 178.464V134.851L198.013 127.728L228.574 131.293L228.585 131.486V131.577L230.353 174.013Z" fill="#6C63FF"/>
<path opacity="0.1" d="M230.353 174.013L191.192 182.022L190.299 181.937V137.227L228.585 131.486L230.353 174.013Z" fill="black"/>
<path opacity="0.05" d="M228.585 131.577L228.574 131.588L190.299 137.227L155.884 134.851L198.013 127.728L228.574 131.293L228.585 131.486V131.577Z" fill="black"/>
<path d="M250.818 130.809L211.656 138.825L210.764 138.734L176.349 135.26V91.6478L218.478 84.525L249.039 88.0893L249.05 88.2825V88.3735L250.818 130.809Z" fill="#3F3D56"/>
<path opacity="0.1" d="M250.818 130.809L211.656 138.825L210.764 138.734V94.024L249.05 88.2825L250.818 130.809Z" fill="black"/>
<path opacity="0.05" d="M249.05 88.3735L249.039 88.3848L210.764 94.024L176.349 91.6478L218.478 84.525L249.039 88.0893L249.05 88.2825V88.3735Z" fill="black"/>
</g>
<defs>
<clipPath id="clip0">
<rect width="539.797" height="400" fill="white"/>
</clipPath>
</defs>
</svg>
