<svg xmlns="http://www.w3.org/2000/svg" x="0px" y="0px" width="25" height="25" viewBox="0 0 172 172" style=" fill:#000000;width: 64px;">
                                    <g fill="none" fill-rule="nonzero" stroke="none" stroke-width="1" stroke-linecap="butt" stroke-linejoin="miter" stroke-miterlimit="10" stroke-dasharray="" stroke-dashoffset="0" font-family="none" font-weight="none" font-size="none" text-anchor="none" style="mix-blend-mode: normal">
                                        <path d="M0,172v-172h172v172z" fill="none"></path>
                                        <g fill="#666666">
                                            <path d="M35.83333,57.33333h100.33333v14.33333h-100.33333zM132.58333,93.16667c-9.8951,0 -17.91667,8.02156 -17.91667,17.91667c0,9.8951 8.02156,17.91667 17.91667,17.91667c9.8951,0 17.91667,-8.02156 17.91667,-17.91667c0,-9.8951 -8.02156,-17.91667 -17.91667,-17.91667zM172,172c0,-1.505 0,-5.96267 0,-7.47483c0,-12.513 -17.888,-21.19183 -39.41667,-21.19183c-21.52867,0 -39.41667,8.67883 -39.41667,21.19183c0,1.51217 0,5.977 0,7.47483z"></path>
                                            <path d="M108.41733,132.45433c-4.99517,-5.66167 -8.084,-13.05767 -8.084,-21.371c0,-18.0815 14.1685,-32.25 32.25,-32.25c1.23267,0 2.39367,0.22217 3.58333,0.35117v-57.6845h-100.33333v129h47.01333c4.8375,-8.0625 13.78867,-14.41217 25.57067,-18.04567z" opacity="0.3"></path>
                                            <path d="M88.76633,143.33333h-45.76633v-28.66667h57.663c-0.129,-1.18967 -0.32967,-2.35067 -0.32967,-3.58333c0,-3.8055 0.7525,-7.38167 1.9135,-10.75h-59.24683v-71.66667h86v50.51783c1.18967,-0.129 2.35067,-0.35117 3.58333,-0.35117c3.8055,0 7.38167,0.7525 10.75,1.9135v-52.08017c0,-7.91917 -6.41417,-14.33333 -14.33333,-14.33333h-86c-7.91917,0 -14.33333,6.41417 -14.33333,14.33333v114.66667c0,7.91917 6.41417,14.33333 14.33333,14.33333h36.82233c1.419,-5.38933 4.50783,-10.21967 8.944,-14.33333z"></path>
                                        </g>
                                    </g>
                                </svg>